<?xml version="1.0" standalone="no"?><!DOCTYPE svg PUBLIC "-//W3C//DTD SVG 1.1//EN" "http://www.w3.org/Graphics/SVG/1.1/DTD/svg11.dtd"><svg t="1705341162194" class="icon" viewBox="0 0 1024 1024" version="1.1" xmlns="http://www.w3.org/2000/svg" p-id="5191" xmlns:xlink="http://www.w3.org/1999/xlink" width="200" height="200"><path d="M512 512m-512 0a512 512 0 1 0 1024 0 512 512 0 1 0-1024 0Z" fill="#FFFFFF" p-id="5192"></path><path d="M743.424 349.44H281.856A25.088 25.088 0 0 0 256 374.208v301.312c0 14.08 11.776 24.512 25.856 24.512h461.568c14.08 0 24.576-10.432 24.576-24.512V374.144a24 24 0 0 0-24.576-24.64zM320 460.8l119.04-24.512 8.96 48.064-117.76 24.512-10.24-48z m191.488 146.432c-30.976 42.88-63.488-13.504-63.488-13.504l16.512-13.568s22.08 50.624 46.72-16.448c23.68 65.152 49.792 17.088 49.792 17.408L576 593.408s-27.968 56.768-64.512 13.824z m182.592-98.368L576 484.352l9.28-48L704 460.8l-9.92 48.064zM512 0a512 512 0 1 0 0 1024A512 512 0 0 0 512 0z m240.896 760.96c-32-1.024-42.752 0-42.752 0s-2.368 36.672-33.664 37.312c-31.616 0.32-36.352-25.6-37.376-35.328-19.2 0-249.728 1.024-249.728 1.024s-4.032 33.92-35.328 33.92c-31.68 0-33.344-28.16-35.392-33.92-20.48 0-48.128-0.64-48.128-0.64S201.216 748.8 192.128 658.56c1.024-90.24 0-268.672 0-268.672s-6.4-83.136 76.416-107.008A4914.56 4914.56 0 0 1 413.248 281.6l-58.88-57.216s-9.088-11.52 6.4-24.256c15.808-12.8 16.448-7.552 21.888-3.84 5.376 3.648 87.808 84.928 87.808 84.928h-11.072c31.616 0 64.256 0.512 95.616 0.512 12.096-12.096 81.088-79.68 85.76-83.008 5.44-3.392 6.4-9.088 21.952 3.712 15.424 12.8 6.4 24.32 6.4 24.32l-57.6 55.488 140.032 1.024s78.08 17.152 80.128 106.688A20278.4 20278.4 0 0 0 832 659.584s-4.352 87.552-79.104 101.312z" fill="#FB7299" p-id="5193"></path></svg>